<svg width="14" height="14" viewBox="0 0 14 14" fill="none" xmlns="http://www.w3.org/2000/svg">
<path d="M12.9881 2.41159L7.4901 0.0776436C7.36755 0.0269512 7.23621 0.000899522 7.10358 0.000976734C6.97096 0.00105395 6.83965 0.0272585 6.71715 0.0780936L1.2156 2.41064C1.03314 2.48628 0.877238 2.61438 0.767662 2.77872C0.658087 2.94306 0.599769 3.13623 0.600101 3.33374V10.667C0.599608 10.864 0.657511 11.0567 0.766494 11.2207C0.875476 11.3848 1.03065 11.5129 1.2124 11.5888L6.7207 13.9231C6.84234 13.9736 6.97278 13.9996 7.1045 13.9995C7.23789 13.9994 7.36996 13.9731 7.4932 13.9221L12.9854 11.5893C13.1677 11.5136 13.3234 11.3855 13.4328 11.2213C13.5423 11.057 13.6005 10.8639 13.6001 10.6665V3.33324C13.6006 3.13632 13.5428 2.94366 13.4338 2.77961C13.3249 2.61556 13.1698 2.48749 12.9881 2.41159ZM7.1016 0.998994L11.8025 2.99459L7.0901 4.95849L2.3917 2.99784L7.1016 0.998994ZM1.6029 3.75229L6.6001 5.83764V12.7859L1.6001 10.667L1.6029 3.75229ZM12.5965 10.6679L7.6001 12.7921V5.82919L12.6001 3.74539V10.6665L12.5965 10.6679Z" fill="#0F0F0F"/>
</svg>
